<svg xmlns="http://www.w3.org/2000/svg" viewBox="0 0 237.98 108.62">
          <text
            transform="translate(44.19 53.12)"
            font-size="35.59"
            font-family="PalatinoLinotype-Bold, Palatino Linotype"
            font-weight="700"
            style="isolation: isolate"
          >
            Jon Spi
            <tspan x="119.63" y="0" letter-spacing="-0.03em">v</tspan>
            <tspan x="138.45" y="0">ack</tspan>
          </text>
          <path
            d="M48,90c.25,2.67,1.87,3.93,4.53,3.93s4.27-1.23,4.27-3.62c0-1.75-.78-2.85-3.89-4.08s-4.36-2.47-4.36-4.53c0-2.54,1.74-4.9,5.67-4.9s5.49,2.36,5.48,4.91H57.93c-.25-2.13-1.29-3.41-4-3.41s-3.7,1.57-3.7,3.2c0,1.35.57,2.18,3.43,3.28,3.76,1.44,4.86,3,4.86,5.27,0,2.81-1.81,5.37-6.34,5.37-4,0-6-2.3-6.1-5.42Z"
          />
          <path
            d="M73.06,87.17c0,3.58-2,8.25-6.82,8.25-3,0-4.75-1.92-4.75-5.23,0-3.64,2.2-8.35,6.8-8.35C71.2,81.86,73.06,83.84,73.06,87.17Zm-9.89,3c0,2.31,1.14,3.77,3.26,3.77,3.39,0,4.92-3.84,4.92-6.77,0-2.4-1-3.88-3.24-3.88C64.85,83.31,63.17,87.14,63.17,90.19Z"
          />
          <path d="M74.72,95.16l4-19.07h1.63l-4,19.07Z" />
          <path
            d="M92.35,87.17c0,3.58-2,8.25-6.82,8.25-3,0-4.75-1.92-4.75-5.23,0-3.64,2.19-8.35,6.8-8.35C90.5,81.86,92.35,83.84,92.35,87.17Zm-9.89,3c0,2.31,1.14,3.77,3.26,3.77,3.39,0,4.92-3.84,4.92-6.77,0-2.4-1-3.88-3.24-3.88C84.14,83.31,82.46,87.14,82.46,90.19Z"
          />
          <path
            d="M115.14,95.16H113.7c.12-1,.29-2,.51-3a6.28,6.28,0,0,1-6,3.27c-4.16,0-6.24-3-6.24-7.17,0-5.61,3.18-11.41,9.58-11.41,3.82,0,6.26,2.21,6.38,5.42h-1.72c-.27-2.15-1.74-3.91-5-3.91-4.77,0-7.47,4.77-7.47,9.68,0,3.27,1.43,5.88,4.81,5.88,4.2,0,5.83-3.16,6.56-6.71v-.1h-5.71l.32-1.55h7.37Z"
          />
          <path
            d="M129.4,91.66c-.27,1.17-.5,2.45-.68,3.49h-1.61a24.27,24.27,0,0,1,.42-2.41,5,5,0,0,1-4.48,2.67c-2.37,0-4-1.28-3.18-4.87l1.83-8.43h1.61l-1.75,8.3c-.4,1.8-.37,3.54,2,3.54,2.2,0,4.08-1.64,4.92-5.6l1.33-6.24h1.64Z"
          />
          <path
            d="M135.5,82.12h1.64l-2.76,13.06h-1.64Zm1.27-6h1.64l-.56,2.61h-1.63Z"
          />
          <path
            d="M139.42,82.12h2.25l.83-3.86h1.63l-.81,3.86h2.89l-.32,1.42H143l-1.74,8.39c-.28,1.35-.23,1.93.94,1.93a6.78,6.78,0,0,0,1.35-.12l-.33,1.37a4.67,4.67,0,0,1-1.62.22c-1.8,0-2.54-.77-2.09-2.9l1.88-8.89h-2.26Z"
          />
          <path
            d="M155.83,91.91c-.21,1-.54,2.66-.62,3.25h-1.62A20.86,20.86,0,0,1,154,93a4.82,4.82,0,0,1-4.6,2.47,3.2,3.2,0,0,1-3.56-3.26c0-3.75,3.6-4.5,6.09-4.74,1.46-.12,2.62-.12,3.26-.15l.19-1c.27-1.34.14-3.06-2.61-3.06a3.26,3.26,0,0,0-3.54,2.39h-1.68c.43-1.88,1.87-3.76,5.39-3.76,2.92,0,4.69,1.36,4.06,4.35ZM155,88.59a24.18,24.18,0,0,0-2.84.14c-2.18.2-4.5.74-4.5,3.21a2,2,0,0,0,2,2,1.51,1.51,0,0,0,.3,0c3,0,4.36-2.34,5-5.16Z"
          />
          <path
            d="M161.19,86c.26-1.28.54-2.66.75-3.86h1.58A24.82,24.82,0,0,1,163,85a5.37,5.37,0,0,1,4.67-3.16l-.38,1.74c-2.53.23-4.47,2.32-5.1,5.28l-1.32,6.27h-1.64Z"
          />
          <path
            d="M30.87,35.21a2,2,0,0,0-2,2h0V38H27.47l-1.06-9.33H28v.78a2,2,0,0,0,2.13,1.84A2,2,0,0,0,32,29.41V26a2,2,0,1,0-4-.3,1.5,1.5,0,0,0,0,.3v.77H26.19L25.13,17.4H26.3v.77a2,2,0,1,0,4,0V14.72a2,2,0,1,0-4,0v.77H24.91v0c-.37-4.65,2.62-8.93,3.07-9.54a.12.12,0,0,0,0-.14C25.16,2.56,22,.55,19.26.5S15.64,1.64,14.5,2.74s-2.95,3.6-4.65,5.18a29.27,29.27,0,0,1-3.51,2.77.11.11,0,0,0,0,.16h0c.22.29.85,1.37,1.19,4.64H6.19v-.77a2,2,0,1,0-4,0v3.45a2,2,0,1,0,4,0V17.4H7.67c0,.4,0,.81,0,1.25a77.79,77.79,0,0,1-.41,8.08H5.48V26a2,2,0,1,0-4-.3,1.5,1.5,0,0,0,0,.3v3.45a2,2,0,0,0,4,0v-.78H7.13c-.31,3.21-.7,6.54-1.06,9.33H4.47v-.77a2,2,0,0,0-4,0v3.46a2,2,0,0,0,4,0v-.78H5.83c-.34,2.63-.6,4.48-.64,4.8a.11.11,0,0,0,0,.08,42.41,42.41,0,0,1,2.63,4,52,52,0,0,1,2.26,4.85v.08a.11.11,0,0,0-.11.11v1.82a.11.11,0,0,0,.11.11.11.11,0,0,1,.12.11h0L9.82,108a.11.11,0,0,0,.11.11H23.61a.11.11,0,0,0,.12-.1h0l-.54-52.24a.11.11,0,0,1,.11-.11h0a.11.11,0,0,0,.11-.12V53.73a.12.12,0,0,0-.11-.12v-.09a26.83,26.83,0,0,1,2.27-4.39c1.25-1.93,2.51-3.55,2.71-3.81a.11.11,0,0,0,0-.08l-.61-5.35h1.19v.77a2,2,0,0,0,4,0V37.19A2,2,0,0,0,30.87,35.21Z"
            fill="none"
            stroke="#000"
            stroke-miterlimit="10"
          />
</svg>
