<?xml version="1.0" encoding="utf-8"?>
<!-- Generator: Adobe Illustrator 24.1.2, SVG Export Plug-In . SVG Version: 6.00 Build 0)  -->
<svg version="1.1" id="Layer_1" xmlns="http://www.w3.org/2000/svg" xmlns:xlink="http://www.w3.org/1999/xlink" x="0px" y="0px"
	 viewBox="0 0 595.3 841.9" style="enable-background:new 0 0 595.3 841.9;" xml:space="preserve">
<path d="M61.2,26.4l-2.5-2.5l-8.5-8.5l-2.6-2.6l0,0c-0.4-0.4-1.1-0.7-1.7-0.7c-1.4,0-2.5,1.1-2.5,2.5c0,0.7,0.3,1.3,0.7,1.7l0,0l0,0
	c0,0,0,0,0,0l2.6,2.6l4.7,4.7H16.5c-1.4,0-2.5,1.1-2.5,2.5c0,1.4,1.1,2.5,2.5,2.5h35.6l-5.4,5.4l-2.6,2.6l0,0
	c-0.4,0.4-0.7,1.1-0.7,1.7c0,1.4,1.1,2.5,2.5,2.5c0.7,0,1.3-0.3,1.7-0.7l0,0l0,0c0,0,0,0,0,0l2.6-2.6l8.5-8.5L61.2,26.4L61.2,26.4
	L61.2,26.4z"/>
</svg>
