<svg xmlns="http://www.w3.org/2000/svg" viewBox="0 0 33.39 108.61"><path d="M30.9,35.21a2,2,0,0,0-2,2h0V38H27.5l-1.06-9.33H28v.78a2,2,0,0,0,4,0V26a2,2,0,1,0-4-.3h0a1.5,1.5,0,0,0,0,.3v.77H26.22L25.16,17.4h1.17v.77a2,2,0,0,0,4,0V14.72a2,2,0,1,0-4,0v.77H24.94C24.57,10.84,27.56,6.56,28,6a.12.12,0,0,0,0-.14C25.19,2.56,22,.55,19.29.5s-3.62,1.14-4.76,2.24-2.95,3.6-4.65,5.18a29.27,29.27,0,0,1-3.51,2.77.11.11,0,0,0,0,.16h0c.22.29.85,1.37,1.19,4.64H6.22v-.77a2,2,0,0,0-4,0v3.45a2,2,0,0,0,4,0V17.4H7.7v1.25a77.79,77.79,0,0,1-.41,8.08H5.51V26a2,2,0,0,0-4-.3h0a1.5,1.5,0,0,0,0,.3v3.45a2,2,0,0,0,4,0v-.78H7.16c-.31,3.21-.7,6.54-1.06,9.33H4.5v-.77a2,2,0,0,0-4,0v3.46a2,2,0,0,0,4,0v-.78H5.86c-.34,2.63-.6,4.48-.64,4.8a.11.11,0,0,0,0,.08,42.41,42.41,0,0,1,2.63,4,52,52,0,0,1,2.26,4.85v.08a.11.11,0,0,0-.11.11h0v1.82a.11.11,0,0,0,.11.11h0a.12.12,0,0,1,.12.1h0L9.85,108a.11.11,0,0,0,.11.11H23.64a.11.11,0,0,0,.12-.1h0l-.54-52.24a.11.11,0,0,1,.11-.11h0a.11.11,0,0,0,.11-.11h0V53.73a.13.13,0,0,0-.11-.12v-.09a26.83,26.83,0,0,1,2.27-4.39c1.25-1.93,2.51-3.55,2.71-3.81a.11.11,0,0,0,0-.08l-.61-5.35h1.19v.77a2,2,0,0,0,4,0V37.19A2,2,0,0,0,30.9,35.21Z" fill="none" stroke="#000" stroke-miterlimit="10"/></svg>